<svg xmlns="http://www.w3.org/2000/svg" xmlns:xlink="http://www.w3.org/1999/xlink" width="512" height="512" viewBox="0 0 512 512"><defs><style>.a{clip-path:url(#b);}.b{fill:#5932e6;}.c{fill:#79e6f3;}</style><clipPath id="b"><rect width="512" height="512"/></clipPath></defs><g id="a" class="a"><rect class="b" width="512" height="512" rx="50"/><g transform="translate(-2 -1)"><rect class="c" width="64" height="64" transform="translate(51 111)"/><rect class="c" width="64" height="64" transform="translate(81 191)"/><rect class="c" width="64" height="64" transform="translate(111 271)"/><rect class="c" width="64" height="64" transform="translate(131 351)"/><rect class="c" width="64" height="64" transform="translate(151 271)"/><rect class="c" width="64" height="64" transform="translate(191 191)"/><rect class="c" width="64" height="64" transform="translate(201 111)"/><rect class="c" width="64" height="64" transform="translate(221 191)"/><rect class="c" width="64" height="64" transform="translate(261 271)"/><rect class="c" width="64" height="64" transform="translate(281 351)"/><rect class="c" width="64" height="64" transform="translate(301 271)"/><rect class="c" width="64" height="64" transform="translate(331 191)"/><rect class="c" width="153" height="64" transform="translate(361 111)"/></g></g></svg>